<?xml version="1.0" encoding="utf-8"?>
<svg viewBox="0 0 500 500" xmlns="http://www.w3.org/2000/svg" xmlns:bx="https://boxy-svg.com">
  <g transform="matrix(0.9999999999999999, 0, 0, 0.9999999999999999, 0, 0)">
    <title>Phinmap</title>
    <g transform="matrix(1, 0, 0, 1, 0, -0.374494)">
      <title>Border</title>
      <rect x="62.623" y="10.74" width="432.192" height="5.488" style="stroke: rgb(71, 69, 69); paint-order: fill;"/>
      <rect x="493.365" y="10.636" width="3.558" height="137.123" style="paint-order: fill;" rx="1.026" ry="1.026"/>
      <rect x="61.274" y="11.225" width="3.898" height="112.682" style="paint-order: fill;" rx="1.538" ry="1.538"/>
      <rect x="7.963" y="121.625" width="54.763" height="2.612" style="paint-order: fill;" rx="1.538" ry="1.538"/>
      <path style="fill: rgb(216, 216, 216); stroke: rgb(0, 0, 0); stroke-width: 3px;" d="M 495.867 185.799 L 371.339 196.65"/>
      <rect x="379.172" y="194.69" width="4.618" height="270.516" style="paint-order: fill;" rx="1.026" ry="1.026"/>
      <rect x="66.827" y="464.334" width="317.2" height="4.093" style="stroke: rgb(71, 69, 69); paint-order: fill;"/>
      <rect x="4.899" y="322.137" width="64.69" height="3.375" style="stroke: rgb(71, 69, 69); paint-order: fill;"/>
      <rect x="65.714" y="324.2" width="4.441" height="144.187" style="paint-order: fill;" rx="1.026" ry="1.026"/>
      <rect x="6.659" y="143.822" width="62.508" height="4.424" style="paint-order: fill;" rx="1.538" ry="1.538"/>
    </g>
    <rect x="150.649" y="217.761" width="35.408" height="200.728" style="fill: rgb(216, 216, 216); stroke: rgb(76, 73, 72);"/>
    <g>
      <title>V1</title>
      <ellipse style="fill: green; stroke: rgb(76, 73, 72);" cx="23.083" cy="224.797" rx="2.996" ry="2.809">
        <title>entrance.v1</title>
      </ellipse>
      <ellipse style="fill: green; stroke: rgb(76, 73, 72);" cx="54.914" cy="221.618" rx="2.996" ry="2.809">
        <title>ITSP.v1</title>
      </ellipse>
      <ellipse style="fill: green; stroke: rgb(76, 73, 72);" cx="109.035" cy="236.277" rx="2.996" ry="2.809">
        <title>FVRP1v1</title>
      </ellipse>
      <ellipse style="fill: green; stroke: rgb(76, 73, 72);" cx="108.3" cy="224.113" rx="2.996" ry="2.809">
        <title>FVRP2v1</title>
      </ellipse>
      <ellipse style="fill: green; stroke: rgb(76, 73, 72);" cx="71.174" cy="274.101" rx="2.996" ry="2.809">
        <title>AtriumPv1</title>
      </ellipse>
      <ellipse style="fill: green; stroke: rgb(76, 73, 72);" cx="109.22" cy="349.152" rx="2.996" ry="2.809">
        <title>CMA1v1</title>
      </ellipse>
      <ellipse style="fill: green; stroke: rgb(76, 73, 72);" cx="166.444" cy="432.557" rx="2.996" ry="2.809">
        <title>NH1v1</title>
      </ellipse>
      <ellipse style="fill: green; stroke: rgb(76, 73, 72);" cx="244.386" cy="430.352" rx="2.996" ry="2.809">
        <title>NH2v1</title>
      </ellipse>
      <ellipse style="fill: green; stroke: rgb(76, 73, 72);" cx="97.349" cy="442.005" rx="2.996" ry="2.809">
        <title>AutoPv1</title>
      </ellipse>
      <ellipse style="fill: green; stroke: rgb(76, 73, 72);" cx="243.058" cy="329.825" rx="2.996" ry="2.809">
        <title>PF1v1</title>
      </ellipse>
      <ellipse style="fill: green; stroke: rgb(76, 73, 72);" cx="243.366" cy="310.892" rx="2.996" ry="2.809">
        <title>PF2v1</title>
      </ellipse>
      <ellipse style="fill: green; stroke: rgb(76, 73, 72);" cx="245.794" cy="241.688" rx="2.996" ry="2.809">
        <title>SP1v1</title>
      </ellipse>
      <ellipse style="fill: green; stroke: rgb(76, 73, 72);" cx="267.396" cy="170.713" rx="2.996" ry="2.809">
        <title>AVEPointv1</title>
      </ellipse>
      <ellipse style="fill: green; stroke: rgb(76, 73, 72);" cx="91.786" cy="190.257" rx="2.996" ry="2.809">
        <title>VehicleParkingPv1</title>
      </ellipse>
      <ellipse style="fill: green; stroke: rgb(76, 73, 72);" cx="350.004" cy="167.396" rx="2.996" ry="2.809">
        <title>MBAHALLPv1</title>
      </ellipse>
      <ellipse style="fill: green; stroke: rgb(76, 73, 72);" cx="357.687" cy="53.186" rx="2.996" ry="2.809">
        <title>MBAPv1</title>
      </ellipse>
      <ellipse style="fill: green; stroke: rgb(76, 73, 72);" cx="256.839" cy="93.158" rx="2.996" ry="2.809">
        <title>GYMPointv1</title>
      </ellipse>
      <ellipse style="fill: green; stroke: rgb(76, 73, 72);" cx="157.327" cy="104.956" rx="2.996" ry="2.809">
        <title>CHSPointv1</title>
      </ellipse>
      <ellipse style="fill: green; stroke: rgb(76, 73, 72);" cx="95.797" cy="86.972" rx="2.996" ry="2.809">
        <title>BasicEdv1</title>
      </ellipse>
      <ellipse style="fill: green; stroke: rgb(76, 73, 72);" cx="460.106" cy="119.108" rx="2.996" ry="2.809">
        <title>RiverPv1</title>
      </ellipse>
      <ellipse style="fill: transparent; stroke: transparent;" cx="403.043" cy="170.315" rx="2.996" ry="2.809">
        <title>Pedistrianentrancev1</title>
      </ellipse>
    </g>
    <g>
      <title>BasicEDBLDG</title>
      <rect x="69.966" y="19.326" width="57.577" height="105.385" style="fill: rgb(172, 118, 84); stroke: rgb(109, 72, 52); stroke-width: 4px; paint-order: stroke;">
        <title>BasicED</title>
      </rect>
      <path d="M 97.432 37.832 L 120.396 124.985 L 74.469 124.985 L 97.432 37.832 Z" style="fill: rgb(216, 216, 216); stroke: rgb(109, 72, 52);" bx:shape="triangle 74.469 37.832 45.927 87.153 0.5 0 1@34bf1e8e"/>
      <rect x="73.885" y="18.326" width="50.678" height="27.715" style="fill: rgb(172, 118, 84); stroke: rgb(109, 72, 52);"/>
      <text style="font-family: Arial, sans-serif, Bold; font-size: 16px; stroke-width: 5.00747px; white-space: pre;" transform="matrix(0.489037, 0, 0, 0.52496, 46.062801, 38.569542)" x="66.799" y="145.813">BASIC ED</text>
    </g>
    <g>
      <title>CHSBLDG</title>
      <rect x="134.024" y="18.326" width="49.094" height="107.574" style="fill: rgb(58, 86, 48); stroke: rgb(0, 0, 0); stroke-width: 2px;">
        <title>CHS</title>
      </rect>
      <rect x="157.197" y="-18.326" width="0.019" height="106.737" style="fill: rgb(216, 216, 216); stroke: rgb(0, 0, 0);" transform="matrix(-1, 0, 0, 1, 314.394012, 36.652)"/>
      <text style="white-space: pre; fill: rgb(255, 255, 255); font-family: Arial, sans-serif; font-size: 16px;" x="147.568" y="146.605" transform="matrix(0.730783, 0, 0, 0.744555, 37.409073, -26.676622)">CHS</text>
    </g>
    <g>
      <title>GYMBLDG</title>
      <rect x="188.217" y="18.791" width="137.082" height="107.025" style="fill: rgb(150, 55, 53); stroke: rgb(0, 0, 0); stroke-width: 2px;">
        <title>GYM</title>
      </rect>
      <rect x="189.028" y="-67.499" width="135.017" height="0.146" style="fill: rgb(216, 216, 216); stroke: rgb(0, 0, 0);" transform="matrix(1, 0, 0, -1, 0, 0)"/>
      <text style="white-space: pre; fill: rgb(255, 255, 255); font-family: Arial, sans-serif; font-size: 16px;" x="236.603" y="120.861" transform="matrix(0.628678, 0, 0, 0.619048, 72.441116, -10.714388)">GYMNASIUM</text>
    </g>
    <g style="fill: rgb(0, 0, 0);">
      <title>RiversideBldg</title>
      <rect x="393.399" y="12.274" width="87.599" height="90.191" style="fill: rgb(216, 216, 216); stroke: rgb(76, 73, 72);"/>
      <path style="fill: rgb(156, 143, 134); stroke: rgb(76, 73, 72);" d="M 391.626 35.19 C 391.626 35.19 412.81 37.773 412.81 37.257 C 412.81 36.741 408.677 103.91 408.16 103.393 C 407.643 102.876 385.426 102.36 385.942 102.36 C 386.458 102.36 390.076 36.74 391.626 35.19 Z"/>
      <path style="fill: rgb(76, 73, 72); stroke: rgb(76, 73, 72);" d="M 388.009 69.292 L 410.744 71.875 L 388.009 69.292 Z"/>
      <path style="fill: rgb(156, 143, 134); stroke: rgb(76, 73, 72);" d="M 412.294 37.773 L 422.628 38.807 C 422.628 38.807 420.254 103.28 419.22 102.763 C 418.186 102.246 408.677 103.393 408.677 102.36 C 408.677 101.327 411.777 36.74 412.294 37.773 Z"/>
      <rect x="422.854" y="39.293" width="8.139" height="63.082" style="fill: rgb(156, 143, 134); stroke: rgb(76, 73, 72);"/>
      <rect x="467.96" y="37.937" width="23.401" height="64.778" style="fill: rgb(156, 143, 134); stroke: rgb(76, 73, 72);"/>
      <path style="fill: rgb(156, 143, 134); stroke: rgb(76, 73, 72);" d="M 395.09 139.019 L 467.336 131.201 L 467.962 139.645 L 396.029 147.776 L 395.09 139.019 Z"/>
      <path style="fill: rgb(156, 143, 134); stroke: rgb(76, 73, 72);" d="M 485.596 93.143 L 391.652 104.45 L 392.33 112.089 C 392.33 112.089 385.208 113.922 385.208 120.645 C 385.208 127.368 393.687 127.063 393.687 127.063 L 395.043 139.456 L 488.649 128.761 L 485.596 93.143 Z"/>
      <path style="fill: rgb(156, 143, 134); stroke: rgb(76, 73, 72);" d="M 391.005 35.221 L 483.301 44.998 C 483.301 44.998 483.301 11.64 484.09 11.64 C 484.879 11.64 391.793 5.889 391.793 5.889 L 391.005 35.221 Z"/>
      <path style="fill: rgb(156, 143, 134); stroke: rgb(76, 73, 72);" d="M 485.36 44.494 L 499.161 46.189 L 496.095 69.591 L 481.527 68.234 L 485.36 44.494 Z"/>
      <path style="fill: rgb(156, 143, 134); stroke: rgb(76, 73, 72);" d="M 481.173 68.556 L 495.77 70.251 L 492.527 93.653 L 477.118 92.296 L 481.173 68.556 Z"/>
      <path style="fill: rgb(156, 143, 134); stroke: rgb(76, 73, 72);" d="M 477.251 92.314 L 492.379 94.009 L 489.018 117.411 L 473.049 116.054 L 477.251 92.314 Z"/>
      <text style="white-space: pre; fill: rgb(0, 0, 0); font-family: Arial, sans-serif; font-size: 16px;" x="422.482" y="67.678" transform="matrix(0.533561, 0, 0, 0.572882, 195.557434, 75.864563)">Riverside<tspan x="422.48199462890625" dy="1em">​</tspan>Building</text>
    </g>
    <rect x="484.444" y="148.848" width="11.707" height="34.39" style="fill: rgb(176, 6, 15); stroke: rgb(0, 0, 0);">
      <title>Security Inspection</title>
    </rect>
    <g style="">
      <title>AVE</title>
      <rect x="69.669" y="135.451" width="271.88" height="83.878" style="fill: rgb(217, 217, 217); stroke: rgb(76, 73, 72);">
        <title>PHINMA AVE</title>
      </rect>
      <rect x="186.472" y="141.144" width="150.202" height="77.535" style="fill: rgb(217, 217, 217); stroke: rgb(76, 73, 72);">
        <title>PHINMA AVE</title>
      </rect>
      <rect x="68.053" y="142.307" width="85.614" height="77.535" style="fill: rgb(217, 217, 217); stroke: rgb(76, 73, 72);">
        <title>VP</title>
      </rect>
      <rect x="84.583" y="167.132" width="68.816" height="2.781" style="fill: rgb(156, 143, 134); stroke: rgb(0, 0, 0);"/>
      <rect x="84.437" y="181.339" width="68.816" height="2.781" style="fill: rgb(156, 143, 134); stroke: rgb(0, 0, 0);"/>
      <rect x="229.039" y="136.368" width="107.671" height="23.297" style="fill: rgb(216, 216, 216); stroke: rgb(255, 255, 255);"/>
      <rect x="153.847" y="135.197" width="5.062" height="84.601" style="fill: rgb(156, 143, 134); stroke: rgb(0, 0, 0);"/>
      <rect x="198.317" y="156.697" width="23.862" height="39.77" style="fill: rgb(255, 236, 201); stroke: rgb(255, 236, 201);"/>
      <rect x="228.946" y="199.019" width="107.671" height="19.519" style="fill: rgb(216, 216, 216); stroke: rgb(255, 255, 255);"/>
      <rect x="183.493" y="136.753" width="19.523" height="82.491" style="fill: rgb(255, 236, 201); stroke: rgb(255, 236, 201);"/>
      <rect x="68.638" y="143.619" width="4.866" height="47.268" style="fill: rgb(156, 143, 134); stroke: rgb(0, 0, 0);"/>
      <rect x="181.686" y="134.835" width="5.062" height="84.601" style="fill: rgb(156, 143, 134); stroke: rgb(0, 0, 0);"/>
      <text style="white-space: pre; fill: rgb(0, 0, 0); font-family: Arial, sans-serif; font-size: 28px;" x="85.217" y="153.652" transform="matrix(0.257691, 0, 0, 0.250153, 59.105026, 139.990433)">VEHICLE PARKING</text>
      <rect x="315.21" y="136.053" width="22.801" height="81.226" style="fill: rgb(216, 216, 216); stroke: rgb(255, 255, 255);"/>
      <rect x="6.911" y="125.966" width="334.384" height="17.553" style="fill: rgb(216, 216, 216); stroke: rgb(76, 73, 72);"/>
      <text style="white-space: pre; fill: rgb(0, 0, 0); font-family: Arial, sans-serif; font-size: 28px;" x="163.854" y="175.171" transform="matrix(0.530474, 0, 0, 0.516379, 138.910278, 92.828217)"><title>PHINMA AVE</title>PHINMA AVE</text>
    </g>
    <rect x="35.988" y="145.346" width="6.041" height="26.212" style="fill: rgb(176, 6, 15); stroke: rgb(0, 0, 0);">
      <title>Security Inspection</title>
    </rect>
    <g>
      <title>FOREST</title>
      <rect x="187.037" y="279.761" width="149.203" height="138.984" style="fill: rgb(148, 168, 96); stroke: rgb(0, 0, 0);"/>
      <rect x="234.046" y="279.761" width="21.461" height="138.984" style="fill: rgb(216, 216, 216); stroke: rgb(216, 216, 216);"/>
      <rect x="187.037" y="320.639" width="47.009" height="16.351" style="fill: rgb(216, 216, 216); stroke: rgb(216, 216, 216);"/>
      <rect x="256.529" y="306.332" width="79.711" height="11.241" style="fill: rgb(216, 216, 216); stroke: rgb(216, 216, 216);"/>
      <path style="fill: rgb(200, 187, 135); stroke: rgb(107, 88, 45);" d="M 335.921 419.44 L 335.287 379.708 C 335.287 379.708 295.952 391.196 310.544 418.482 L 335.921 419.44 Z"/>
      <path style="fill: rgb(200, 187, 135); stroke: rgb(107, 88, 45);" d="M 335.671 419.216 L 335.225 382.163 C 335.225 382.163 307.546 392.877 317.814 418.323 L 335.671 419.216 Z"/>
      <rect x="197.725" y="346.448" width="22.768" height="71.428" style="fill: rgb(126, 231, 231); stroke: rgb(126, 231, 231);">
        <title>POND</title>
      </rect>
      <text style="white-space: pre; fill: rgb(51, 51, 51); font-family: Arial, sans-serif; font-size: 28px;" x="44.698" y="315.777" transform="matrix(0.267718, 0, 0, 0.340385, 251.711761, 240.621735)">PHINMA FOREST</text>
      <text style="white-space: pre; fill: rgb(51, 51, 51); font-family: Arial, sans-serif; font-size: 28px;" x="44.698" y="315.777" transform="matrix(0.185897, 0, 0, 0.209031, 309.49704, 340.087677)">OLD<tspan x="44.698001861572266" dy="1em">​</tspan>STAGE</text>
    </g>
    <g style="" transform="matrix(0.960015, 0, 0, 0.903003, 7.478672, 20.63785)">
      <title>Student Plaza</title>
      <rect x="187.037" y="212.767" width="149.203" height="66.426" style="fill: rgb(154, 141, 130); stroke: rgb(71, 69, 69);">
        <title>Student Plaza</title>
      </rect>
      <text style="white-space: pre; fill: rgb(0, 0, 0); font-family: Arial, sans-serif; font-size: 28px;" x="132.056" y="251.432" transform="matrix(0.474522, 0, 0, 0.580708, 148.873093, 107.737511)">STUDENT PLAZA</text>
    </g>
    <rect x="335.218" y="384.236" width="7.154" height="34.78" style="fill: rgb(216, 216, 216); stroke: rgb(0, 0, 0);"/>
    <g>
      <title>NORTH HALL</title>
      <rect x="123.292" y="418.825" width="236.866" height="42.109" style="fill: rgb(149, 137, 85); stroke: rgb(0, 0, 0);"/>
      <rect x="124.345" y="439.88" width="234.359" height="1.053" style="fill: rgb(216, 216, 216); stroke: rgb(0, 0, 0);"/>
      <text style="white-space: pre; fill: rgb(0, 0, 0); font-family: Arial, sans-serif; font-size: 28px;" x="153.624" y="449.315" transform="matrix(0.499777, 0, 0, 0.502622, 103.57856, 214.026596)">NORTH HALL</text>
    </g>
    <g>
      <title>MBA</title>
      <rect x="338.317" y="71.303" width="24.428" height="61.069" style="fill: rgb(248, 190, 144); stroke: rgb(220, 155, 99); stroke-width: 2px;"/>
      <rect x="363.686" y="72.214" width="16.858" height="31.477" style="fill: rgb(248, 190, 144); stroke: rgb(220, 155, 99); stroke-width: 2px;"/>
      <rect x="329.149" y="11.556" width="62.087" height="61.069" style="fill: rgb(248, 190, 144); stroke: rgb(220, 155, 99); stroke-width: 2px;"/>
      <rect x="338.223" y="133.774" width="24.428" height="61.069" style="fill: rgb(248, 190, 144); stroke: rgb(220, 155, 99); stroke-width: 2px;"/>
      <rect x="337.911" y="196.016" width="24.428" height="24.595" style="fill: rgb(248, 190, 144); stroke: rgb(220, 155, 99); stroke-width: 2px;"/>
      <rect x="337.287" y="220.676" width="33.374" height="77.526" style="fill: rgb(248, 190, 144); stroke: rgb(220, 155, 99); stroke-width: 2px;"/>
      <rect x="337.911" y="299.021" width="24.428" height="83.552" style="fill: rgb(248, 190, 144); stroke: rgb(220, 155, 99); stroke-width: 2px;"/>
      <rect x="349.61" y="74.407" width="1.03" height="58.317" style="fill: rgb(248, 190, 144); stroke: rgb(220, 155, 99); stroke-width: 2px;"/>
      <text style="white-space: pre; fill: rgb(51, 51, 51); font-family: Arial, sans-serif; font-size: 16px;" x="342.179" y="54.582" transform="matrix(0.583393, 0, 0, 0.576923, 148.059601, 14.913618)">MBA</text>
      <text style="white-space: pre; fill: rgb(51, 51, 51); font-family: Arial, sans-serif; font-size: 16px;" x="347.684" y="159.032" transform="matrix(0.518975, 0, 0, 0.593906, 159.674744, 71.100388)">MBA <tspan x="347.6839904785156" dy="1em">​</tspan>HALL</text>
    </g>
    <g>
      <title>op</title>
      <rect x="74.59" y="242.987" width="16.683" height="19.463" style="fill: rgb(58, 86, 48); stroke: rgb(0, 0, 0);"/>
      <text style="white-space: pre; fill: rgb(0, 0, 0); font-family: Arial, sans-serif; font-size: 28px;" x="80.533" y="250.95" transform="matrix(0.343593, 0, 0, 0.309654, 48.922173, 176.696976)">OP</text>
    </g>
    <g style="" transform="matrix(1.030173, 0, 0, 1.276303, -3.769866, -79.362619)">
      <title>Atrium</title>
      <text style="white-space: pre; fill: rgb(0, 0, 0); font-family: Arial, sans-serif; font-size: 28px;" x="57.401" y="278.58" transform="matrix(0.388195, 0, 0, 0.260862, 18.586775, 201.334599)">ATRIUM</text>
    </g>
    <g>
      <rect x="123.616" y="260.89" width="28.832" height="26.638" style="fill: rgb(216, 216, 216); stroke: rgb(0, 0, 0);"/>
      <rect x="137.673" y="270.685" width="11.028" height="16.747" style="fill: rgb(58, 86, 48); stroke: rgb(0, 0, 0);"/>
      <rect x="139.715" y="273.544" width="6.535" height="13.479" style="fill: rgb(216, 216, 216); stroke: rgb(0, 0, 0);"/>
      <rect x="128.278" y="261.291" width="13.479" height="4.085" style="fill: rgb(58, 86, 48); stroke: rgb(0, 0, 0);"/>
    </g>
    <g>
      <rect x="37.659" y="289.605" width="13.476" height="11.551" style="fill: rgb(58, 86, 48); stroke: rgb(0, 0, 0);"/>
      <rect x="56.098" y="290.049" width="13.476" height="11.551" style="fill: rgb(58, 86, 48); stroke: rgb(0, 0, 0);"/>
      <rect x="55.541" y="305.006" width="13.476" height="11.551" style="fill: rgb(58, 86, 48); stroke: rgb(0, 0, 0);"/>
    </g>
    <g>
      <title>FVR</title>
      <rect x="74.894" y="216.648" width="77.158" height="25.719" style="fill: rgb(243, 173, 178); stroke: rgb(0, 0, 0);"/>
      <path style="fill: rgb(109, 72, 52); stroke: rgb(0, 0, 0);" d="M 152.053 217.445 L 133.094 242.378 L 133.095 261.795 L 151.714 262.075 L 152.053 217.445 Z"/>
      <line style="fill: rgb(216, 216, 216); stroke: rgb(0, 0, 0);" x1="75.531" y1="228.848" x2="142.877" y2="229.218"/>
      <rect x="142.507" y="229.958" width="0.37" height="31.083" style="fill: rgb(216, 216, 216); stroke: rgb(0, 0, 0);"/>
      <text style="white-space: pre; fill: rgb(0, 0, 0); font-family: Arial, sans-serif; font-size: 28px;" x="92.137" y="221.488" transform="matrix(0.289931, 0, 0, 0.282803, 65.423607, 163.069885)">FVR</text>
    </g>
    <g style="" transform="matrix(0.845811, 0, 0, 0.826257, 10.171654, 32.025441)">
      <title>CSDL ITS</title>
      <rect x="39.046" y="184.327" width="30.288" height="65.705" style="fill: rgb(150, 55, 53); stroke: rgb(0, 0, 0);"/>
      <text style="white-space: pre; fill: rgb(0, 0, 0); font-family: Arial, sans-serif; font-size: 28px;" x="42.713" y="210.035" transform="matrix(0.336349, 0, 0, 0.282379, 26.611679, 153.414505)">CSDL<tspan x="42.7130012512207" dy="1em">​</tspan>ITS</text>
    </g>
    <g id="entancev1" style="" transform="matrix(1, 0, 0, 1.017846, 0, -2.668942)">
      <title>ENTRANCE BLDG</title>
      <rect x="8.402" y="149.554" width="27.195" height="167.878" style="fill: rgb(103, 115, 99); stroke: rgb(0, 0, 0);">
        <title>ENTRANCE BLDG</title>
      </rect>
      <rect x="1.045" y="183.02" width="7.351" height="88.822" style="fill: rgb(103, 115, 99); stroke: rgb(0, 0, 0);"/>
      <text style="white-space: pre; fill: rgb(0, 0, 0); font-family: Arial, sans-serif, Bold; font-size: 28px;" x="16.359" y="185.47" transform="matrix(0.160473, 0, 0, 0.203688, 6.842736, 183.288498)">MAIN<tspan x="16.358999252319336" dy="1em">​</tspan>ENTRANCE<tspan x="16.358999252319336" dy="1em">​</tspan>GATE</text>
      <text style="white-space: pre; fill: rgb(0, 0, 0); font-family: Arial, sans-serif; font-size: 16px;" x="15.134" y="179.957" transform="matrix(0.280494, 0, 0, 0.386109, 6.658429, 89.477966)">PTC<tspan x="15.133999824523926" dy="1em">​</tspan>BUILDING</text>
    </g>
    <g>
      <title>CMA</title>
      <rect x="72.661" y="287.848" width="76.609" height="124.704" style="fill: rgb(139, 141, 97); stroke: rgb(0, 0, 0);"/>
      <path style="fill: rgb(216, 216, 216); stroke: rgb(0, 0, 0);" d="M 72.826 288.393 L 98.635 306.398 L 72.826 288.393 Z"/>
      <path style="fill: rgb(216, 216, 216); stroke: rgb(0, 0, 0);" d="M 123.572 401.195 L 149.746 412.561 L 123.572 401.195 Z"/>
      <path style="fill: rgb(216, 216, 216); stroke: rgb(0, 0, 0); transform-box: fill-box; transform-origin: 50% 50%;" d="M 125.805 307.042 L 149.705 288.062 L 125.805 307.042 Z" transform="matrix(-1, 0, 0, -1, 0.000005, -0.000001)"/>
      <path style="fill: rgb(216, 216, 216); stroke: rgb(0, 0, 0);" d="M 73.176 411.61 L 102.131 401.868 L 73.176 411.61 Z"/>
      <rect x="93.18" y="300.515" width="36.292" height="103.169" style="fill: rgb(216, 216, 216); stroke: rgb(0, 0, 0);"/>
      <text style="white-space: pre; fill: rgb(0, 0, 0); font-family: Arial, sans-serif; font-size: 28px;" x="90.536" y="333.988" transform="matrix(0.261405, 0, 0, 0.293557, 70.65332, 248.096786)">CMA <tspan x="90.53600311279297" dy="1em">​</tspan>BUILDING</text>
    </g>
    <g transform="matrix(1, 0, 0, 1, 2, 0)">
      <title>AUTO</title>
      <rect x="71.073" y="418.219" width="45.554" height="43.419" style="fill: rgb(91, 91, 91); stroke: rgb(0, 0, 0);"/>
      <text style="white-space: pre; fill: rgb(0, 0, 0); font-family: Arial, sans-serif; font-size: 28px;" x="79.096" y="433.695" transform="matrix(0.238697, 0, 0, 0.472731, 54.019207, 229.322662)">AUTOMATIVE<tspan x="79.09600067138672" dy="1em">​</tspan>BLDG.</text>
    </g>
    <text style="white-space: pre; fill: rgb(51, 51, 51); font-family: Arial, sans-serif; font-size: 28px;" x="381.673" y="169.718" transform="matrix(0.21009, 0, 0, 0.303536, 293.29148, 113.018275)">PEDESTRIAN’S  ENTRANCE /EXIT</text>
    <text style="white-space: pre; fill: rgb(51, 51, 51); font-family: Arial, sans-serif; font-size: 28px;" x="27.69" y="135.984" transform="matrix(0.246507, 0, 0, 0.316385, 6.622663, 98.198321)">VEHICLE’s  ENTRANCE/EXIT</text>
    <g>
      <title>v2</title>
      <ellipse style="fill: transparent; stroke: transparent;" cx="52.187" cy="135.779" rx="2.996" ry="2.809">
        <title>v1</title>
      </ellipse>
      <ellipse style="fill: transparent; stroke: transparent;" cx="95.015" cy="136.347" rx="2.996" ry="2.809">
        <title>v2</title>
      </ellipse>
      <ellipse style="fill: transparent; stroke: transparent;" cx="156.995" cy="136.039" rx="2.996" ry="2.809">
        <title>v4</title>
      </ellipse>
      <ellipse style="fill: transparent; stroke: transparent;" cx="125.653" cy="136.328" rx="2.996" ry="2.809">
        <title>v3</title>
      </ellipse>
      <ellipse style="fill: transparent; stroke: transparent;" cx="174.804" cy="136.039" rx="2.996" ry="2.809">
        <title>v5</title>
      </ellipse>
      <ellipse style="fill: transparent; stroke: transparent;" cx="214.699" cy="137.001" rx="2.996" ry="2.809">
        <title>v6</title>
      </ellipse>
      <ellipse style="fill: transparent; stroke: transparent;" cx="256.882" cy="136.674" rx="2.996" ry="2.809">
        <title>v7</title>
      </ellipse>
      <ellipse style="fill: transparent; stroke: transparent;" cx="255.454" cy="167.795" rx="2.996" ry="2.809">
        <title>v30</title>
      </ellipse>
      <ellipse style="fill: transparent; stroke: transparent;" cx="334.122" cy="215.467" rx="2.996" ry="2.809">
        <title>v29</title>
      </ellipse>
      <ellipse style="fill: transparent; stroke: transparent;" cx="331.182" cy="275.834" rx="2.996" ry="2.809">
        <title>v28</title>
      </ellipse>
      <ellipse style="fill: transparent; stroke: transparent;" cx="244.341" cy="274.966" rx="2.996" ry="2.809">
        <title>v31</title>
      </ellipse>
      <ellipse style="fill: transparent; stroke: transparent;" cx="167.112" cy="276.092" rx="2.996" ry="2.809">
        <title>v22</title>
      </ellipse>
      <ellipse style="fill: transparent; stroke: transparent;" cx="167.238" cy="253.454" rx="2.996" ry="2.809">
        <title>v21</title>
      </ellipse>
      <ellipse style="fill: transparent; stroke: transparent;" cx="168.926" cy="168.161" rx="2.996" ry="2.809">
        <title>v18</title>
      </ellipse>
      <ellipse style="fill: transparent; stroke: transparent;" cx="167.305" cy="327.561" rx="2.996" ry="2.809">
        <title>v23</title>
      </ellipse>
      <ellipse style="fill: transparent; stroke: transparent;" cx="166.973" cy="348.215" rx="2.996" ry="2.809">
        <title>v24</title>
      </ellipse>
      <ellipse style="fill: transparent; stroke: transparent;" cx="166.238" cy="395.406" rx="2.996" ry="2.809">
        <title>v25</title>
      </ellipse>
      <ellipse style="fill: transparent; stroke: transparent;" cx="121.252" cy="415.92" rx="2.996" ry="2.809">
        <title>v26</title>
      </ellipse>
      <ellipse style="fill: transparent; stroke: transparent;" cx="107.995" cy="274.693" rx="2.996" ry="2.809">
        <title>v13</title>
      </ellipse>
      <ellipse style="fill: transparent; stroke: transparent;" cx="53.985" cy="274.958" rx="2.996" ry="2.809">
        <title>v12</title>
      </ellipse>
      <ellipse style="fill: transparent; stroke: transparent;" cx="41.026" cy="274.816" rx="2.996" ry="2.809">
        <title>v11</title>
      </ellipse>
      <ellipse style="fill: transparent; stroke: transparent;" cx="41.037" cy="177.881" rx="2.996" ry="2.809">
        <title>v10</title>
      </ellipse>
      <ellipse style="fill: transparent; stroke: transparent;" cx="53.037" cy="161.881" rx="2.996" ry="2.809">
        <title>v20</title>
      </ellipse>
      <ellipse style="fill: transparent; stroke: transparent;" cx="71.014" cy="242.889" rx="2.996" ry="2.809">
        <title>v14</title>
      </ellipse>
      <ellipse style="fill: transparent; stroke: transparent;" cx="74.313" cy="211.453" rx="2.996" ry="2.809">
        <title>v15</title>
      </ellipse>
      <ellipse style="fill: transparent; stroke: transparent;" cx="167.508" cy="211.122" rx="2.996" ry="2.809">
        <title>v19</title>
      </ellipse>
      <ellipse style="fill: transparent; stroke: transparent;" cx="74.494" cy="198.616" rx="2.996" ry="2.809">
        <title>v16</title>
      </ellipse>
      <ellipse style="fill: transparent; stroke: transparent;" cx="95.062" cy="197.535" rx="2.996" ry="2.809">
        <title>v17</title>
      </ellipse>
      <ellipse style="fill: transparent; stroke: transparent;" cx="330.483" cy="135.113" rx="2.996" ry="2.809">
        <title>v8</title>
      </ellipse>
    </g>
    <g>
      <title>Points</title>
      <ellipse style="fill: transparent; stroke: transparent;" cx="38.818" cy="223.85" rx="2.996" ry="2.809">
        <title>entrance</title>
      </ellipse>
      <ellipse style="fill: transparent; stroke: transparent;" cx="54.172" cy="242.766" rx="2.996" ry="2.809">
        <title>ITSP</title>
      </ellipse>
      <ellipse style="fill: transparent; stroke: transparent;" cx="71.4" cy="275.216" rx="2.996" ry="2.809">
        <title>AtriumP</title>
      </ellipse>
      <ellipse style="fill: transparent; stroke: transparent;" cx="108.849" cy="244.554" rx="2.996" ry="2.809">
        <title>FVRP1</title>
      </ellipse>
      <ellipse style="fill: transparent; stroke: transparent;" cx="107.351" cy="286.752" rx="2.996" ry="2.809">
        <title>CMA1</title>
      </ellipse>
      <ellipse style="fill: transparent; stroke: transparent;" cx="153.039" cy="348.317" rx="2.996" ry="2.809">
        <title>CMA2</title>
      </ellipse>
      <ellipse style="fill: transparent; stroke: transparent;" cx="185.03" cy="327.474" rx="2.996" ry="2.809">
        <title>PF1</title>
      </ellipse>
      <ellipse style="fill: transparent; stroke: transparent;" cx="96.111" cy="415.994" rx="2.996" ry="2.809">
        <title>AutoP</title>
      </ellipse>
      <ellipse style="fill: transparent; stroke: transparent;" cx="243.896" cy="414.937" rx="2.996" ry="2.809">
        <title>NH2</title>
      </ellipse>
      <ellipse style="fill: transparent; stroke: transparent;" cx="308.152" cy="405.341" rx="2.996" ry="2.809">
        <title>OldStage</title>
      </ellipse>
      <ellipse style="fill: transparent; stroke: transparent;" cx="244.634" cy="279.901" rx="2.996" ry="2.809">
        <title>PF3</title>
      </ellipse>
      <ellipse style="fill: transparent; stroke: transparent;" cx="335.484" cy="310.99" rx="2.996" ry="2.809">
        <title>PF2</title>
      </ellipse>
      <ellipse style="fill: transparent; stroke: transparent;" cx="255.308" cy="211.145" rx="2.996" ry="2.809">
        <title>SP4</title>
      </ellipse>
      <ellipse style="fill: transparent; stroke: transparent;" cx="185.046" cy="253.989" rx="2.996" ry="2.809">
        <title>SP2</title>
      </ellipse>
      <ellipse style="fill: transparent; stroke: transparent;" cx="333.155" cy="241.957" rx="2.996" ry="2.809">
        <title>SP3</title>
      </ellipse>
      <ellipse style="fill: transparent; stroke: transparent;" cx="244.441" cy="271.309" rx="2.996" ry="2.809">
        <title>SP1</title>
      </ellipse>
      <ellipse style="fill: transparent; stroke: transparent;" cx="218.2" cy="168.937" rx="2.996" ry="2.809">
        <title>AVEPoint</title>
      </ellipse>
      <ellipse style="fill: transparent; stroke: transparent;" cx="332.129" cy="171.627" rx="2.996" ry="2.809">
        <title>MBAHALLP</title>
      </ellipse>
      <ellipse style="fill: transparent; stroke: transparent;" cx="257.166" cy="125.249" rx="2.996" ry="2.809">
        <title>GYMPoint</title>
      </ellipse>
      <ellipse style="fill: transparent; stroke: transparent;" cx="157.334" cy="124.586" rx="2.996" ry="2.809">
        <title>CHSPoint</title>
      </ellipse>
      <ellipse style="fill: transparent; stroke: transparent;" cx="95.644" cy="124.586" rx="2.996" ry="2.809">
        <title>BasicEd</title>
      </ellipse>
      <ellipse style="fill: transparent; stroke: transparent;" cx="95.046" cy="160.23" rx="2.996" ry="2.809">
        <title>VehicleParkingP</title>
      </ellipse>
      <ellipse style="fill: transparent; stroke: transparent;" cx="6.763" cy="135.533" rx="2.996" ry="2.809">
        <title>VehicleEntrance</title>
      </ellipse>
      <ellipse style="fill: transparent; stroke: transparent;" cx="333.122" cy="77.722" rx="2.996" ry="2.809">
        <title>MBAP</title>
      </ellipse>
      <ellipse style="fill: transparent; stroke: transparent;" cx="424.217" cy="144.522" rx="2.996" ry="2.809">
        <title>RiverP</title>
      </ellipse>
      <ellipse style="fill: transparent; stroke: transparent;" cx="482.043" cy="169.175" rx="2.996" ry="2.809">
        <title>SecurityInspection</title>
      </ellipse>
      <ellipse style="fill: transparent; stroke: transparent;" cx="424.217" cy="170.217" rx="2.996" ry="2.809">
        <title>Pedistrianentrance</title>
      </ellipse>
      <ellipse style="fill: transparent; stroke: transparent;" cx="94.772" cy="213.13" rx="2.996" ry="2.809">
        <title>FVRP2</title>
      </ellipse>
      <ellipse style="fill: transparent; stroke: transparent;" cx="166.527" cy="414.72" rx="2.996" ry="2.809">
        <title>NH1</title>
      </ellipse>
    </g>
  </g>
  <g transform="matrix(0.9999999999999999, 0, 0, 0.9999999999999999, 0, 0)">
    <title>path</title>
    <line style="fill: transparent; stroke: transparent;" x1="6.302" y1="135.762" x2="52.139" y2="135.762">
      <title>v_23_v1</title>
    </line>
    <line style="fill: transparent; stroke: transparent;" x1="52.126" y1="135.778" x2="94.601" y2="135.778">
      <title>v1_v2</title>
    </line>
    <line style="fill: transparent; stroke: transparent;" x1="95.201" y1="135.778" x2="125.113" y2="135.778">
      <title>v2_v3</title>
    </line>
    <line style="fill: transparent; stroke: transparent;" x1="94.808" y1="135.886" x2="94.808" y2="124.758">
      <title>v2_v_21</title>
    </line>
    <line style="fill: transparent; stroke: transparent;" x1="125.113" y1="135.778" x2="156.796" y2="135.975">
      <title>v3_v4</title>
    </line>
    <line style="fill: transparent; stroke: transparent;" x1="94.759" y1="136.231" x2="94.759" y2="160.528">
      <title>v2_v_22</title>
    </line>
    <line style="fill: transparent; stroke: transparent; transform-origin: 156.574px 130.511px;" x1="156.551" y1="136.003" x2="156.597" y2="125.018">
      <title>v4_v_20</title>
    </line>
    <line style="fill: transparent; stroke: transparent;" x1="156.362" y1="135.875" x2="174.402" y2="136.248">
      <title>v4_v5</title>
    </line>
    <line style="fill: transparent; stroke: transparent;" x1="174.18" y1="136.07" x2="213.966" y2="136.47">
      <title>v5_v6</title>
    </line>
    <line style="fill: transparent; stroke: transparent;" x1="213.913" y1="136.42" x2="256.953" y2="136.98">
      <title>v6_v7</title>
    </line>
    <line style="fill: transparent; stroke: transparent; transform-origin: 256.79px 131.156px;" x1="256.82" y1="136.89" x2="256.76" y2="125.423">
      <title>v7_v_19</title>
    </line>
    <line style="fill: transparent; stroke: transparent;" x1="256.323" y1="137.241" x2="330.515" y2="136.009">
      <title>v7_v8</title>
    </line>
    <line style="fill: transparent; stroke: transparent;" x1="330.102" y1="136.572" x2="332.725" y2="77.976">
      <title>v8_v_24</title>
    </line>
    <line style="fill: transparent; stroke: transparent; transform-box: fill-box; transform-origin: 50% 50%;" x1="331.146" y1="170.993" x2="330.085" y2="135.803" transform="matrix(-1, 0, 0, -1, 0.00003, 0)">
      <title>v8_v_18</title>
    </line>
    <line style="fill: transparent; stroke: transparent;" x1="256.697" y1="136.782" x2="255.462" y2="167.979">
      <title>v7_v30</title>
    </line>
    <line style="fill: transparent; stroke: transparent;" x1="255.031" y1="167.935" x2="331.014" y2="171.135">
      <title>v30_v_18</title>
    </line>
    <line style="fill: transparent; stroke: transparent;" x1="255.031" y1="167.736" x2="217.839" y2="168.735">
      <title>v30_v_17</title>
    </line>
    <line style="fill: transparent; stroke: transparent;" x1="255.031" y1="167.549" x2="255.031" y2="211.126">
      <title>v30_v_12</title>
    </line>
    <line style="fill: transparent; stroke: transparent;" x1="175.104" y1="136.215" x2="168.986" y2="169.1">
      <title>v5_v18</title>
    </line>
    <line style="fill: transparent; stroke: transparent;" x1="168.804" y1="168.906" x2="218.123" y2="168.526">
      <title>v18_v_17</title>
    </line>
    <line style="fill: transparent; stroke: transparent;" x1="168.872" y1="168.063" x2="166.968" y2="211.607">
      <title>v18_v19</title>
    </line>
    <line style="fill: transparent; stroke: transparent;" x1="330.691" y1="170.544" x2="333.62" y2="215.743">
      <title>v_18_v29</title>
    </line>
    <line style="fill: transparent; stroke: transparent;" x1="167.231" y1="210.972" x2="167.214" y2="253.344">
      <title>v19_v21</title>
    </line>
    <line style="fill: transparent; stroke: transparent;" x1="167.538" y1="253.651" x2="185.283" y2="254.059">
      <title>v21_v_13</title>
    </line>
    <line style="fill: transparent; stroke: transparent;" x1="167.115" y1="253.075" x2="166.573" y2="276.073">
      <title>v21_v22</title>
    </line>
    <line style="fill: transparent; stroke: transparent;" x1="166.532" y1="327.13" x2="185.541" y2="327.13">
      <title>v23_v_7</title>
    </line>
    <line style="fill: transparent; stroke: transparent;" x1="166.517" y1="275.574" x2="166.959" y2="327.009">
      <title>v22_v23</title>
    </line>
    <line style="fill: transparent; stroke: transparent;" x1="166.67" y1="276.312" x2="244.45" y2="275.025">
      <title>v23_v31</title>
    </line>
    <line style="fill: transparent; stroke: transparent;" x1="244.515" y1="275.314" x2="244.515" y2="269.39">
      <title>v31_v_16</title>
    </line>
    <line style="fill: transparent; stroke: transparent;" x1="333.475" y1="214.485" x2="332.92" y2="241.364">
      <title>v29_v_13</title>
    </line>
    <line style="fill: transparent; stroke: transparent;" x1="332.643" y1="239.978" x2="331.812" y2="276.555">
      <title>v_13_v28</title>
    </line>
    <line style="fill: transparent; stroke: transparent;" x1="331.834" y1="275.995" x2="244.803" y2="274.338">
      <title>v_28_v31</title>
    </line>
    <line style="fill: transparent; stroke: transparent;" x1="244.578" y1="273.975" x2="244.578" y2="280.421">
      <title>v31_v_14</title>
    </line>
    <line style="fill: transparent; stroke: transparent;" x1="331.257" y1="276.008" x2="334.395" y2="311.835">
      <title>v28_v_11</title>
    </line>
    <line style="fill: transparent; stroke: transparent;" x1="244.806" y1="275.123" x2="243.474" y2="415.032">
      <title>v31_v_9</title>
    </line>
    <line style="fill: transparent; stroke: transparent;" x1="167.076" y1="326.481" x2="167.076" y2="348.57">
      <title>v23_v24</title>
    </line>
    <line style="fill: transparent; stroke: transparent; transform-origin: 166.913px 372.135px;" x1="166.978" y1="348.089" x2="166.849" y2="396.181">
      <title>v24_v25</title>
    </line>
    <line style="fill: transparent; stroke: transparent; transform-box: fill-box; transform-origin: 50% 50%;" x1="165.916" y1="414.473" x2="167.038" y2="395.189" transform="matrix(-1, 0, 0, -1, -0.000026, 0.000021)">
      <title>v25_v_29</title>
    </line>
    <line style="fill: transparent; stroke: transparent;" x1="166.246" y1="414.678" x2="120.834" y2="415.238">
      <title>v_29_v26</title>
    </line>
    <line style="fill: transparent; stroke: transparent;" x1="121.657" y1="415.266" x2="95.937" y2="415.053">
      <title>v26_v_8</title>
    </line>
    <line style="fill: transparent; stroke: transparent;" x1="166.789" y1="348.348" x2="152.289" y2="348.348">
      <title>v24_v_6</title>
    </line>
    <line style="fill: transparent; stroke: transparent;" x1="51.948" y1="135.863" x2="52.818" y2="161.948">
      <title>v1_v20</title>
    </line>
    <line style="fill: transparent; stroke: transparent;" x1="52.665" y1="161.368" x2="39.111" y2="179.579">
      <title>v20_v10</title>
    </line>
    <line style="fill: transparent; stroke: transparent;" x1="38.859" y1="178.651" x2="38.859" y2="223.493">
      <title>v10_v_1</title>
    </line>
    <line style="fill: transparent; stroke: transparent;" x1="38.807" y1="223.345" x2="40.549" y2="274.55">
      <title>v_1_v11</title>
    </line>
    <line style="fill: transparent; stroke: transparent;" x1="40.407" y1="273.951" x2="54.696" y2="274.449">
      <title>v11_v12</title>
    </line>
    <line style="fill: transparent; stroke: transparent; transform-box: fill-box; transform-origin: 50% 50%;" x1="53.954" y1="274.29" x2="53.642" y2="242.405">
      <title>v12_v_2</title>
    </line>
    <line style="fill: transparent; stroke: transparent;" x1="54.479" y1="274.312" x2="70.731" y2="274.669">
      <title>v12_v_3</title>
    </line>
    <line style="fill: transparent; stroke: transparent;" x1="72.299" y1="242.067" x2="53.819" y2="242.266">
      <title>v14_v_2</title>
    </line>
    <line style="fill: transparent; stroke: transparent;" x1="70.113" y1="274.854" x2="71.306" y2="242.465">
      <title>v_3_v14</title>
    </line>
    <line style="fill: transparent; stroke: transparent;" x1="70.1" y1="274.587" x2="108.148" y2="274.587">
      <title>v_3_v13</title>
    </line>
    <line style="fill: transparent; stroke: transparent;" x1="108.101" y1="274.249" x2="107.878" y2="287.388">
      <title>v13_v_5</title>
    </line>
    <line style="fill: transparent; stroke: transparent; transform-box: fill-box; transform-origin: 50% 50%;" x1="108.82" y1="244.052" x2="108.274" y2="274.473" transform="matrix(-1, 0, 0, -1, 0.000023, -0.000027)">
      <title>v13_v_4</title>
    </line>
    <line style="fill: transparent; stroke: transparent;" x1="71.156" y1="241.729" x2="73.92" y2="210.643">
      <title>v14_v15</title>
    </line>
    <line style="fill: transparent; stroke: transparent;" x1="73.746" y1="211.391" x2="94.816" y2="213.291">
      <title>v15_v_28</title>
    </line>
    <line style="fill: transparent; stroke: transparent;" x1="73.92" y1="211.565" x2="74.783" y2="198.094">
      <title>v15_v16</title>
    </line>
    <line style="fill: transparent; stroke: transparent;" x1="75.104" y1="198.538" x2="95.309" y2="196.812">
      <title>v16_v17</title>
    </line>
    <line style="fill: transparent; stroke: transparent;" x1="94.989" y1="197.058" x2="94.816" y2="160.101">
      <title>v17_v_22</title>
    </line>
    <line style="fill: transparent; stroke: transparent;" x1="108.32" y1="274.543" x2="166.172" y2="276.372">
      <title>v13_v23</title>
    </line>
    <line style="fill: transparent; stroke: transparent;" x1="331.151" y1="170.784" x2="423.99" y2="169.911">
      <title>v_18_v_27</title>
    </line>
    <line style="fill: transparent; stroke: transparent;" x1="423.991" y1="169.62" x2="423.699" y2="144.591">
      <title>v_27_v_25</title>
    </line>
    <line style="fill: transparent; stroke: transparent;" x1="423.82" y1="169.607" x2="482.197" y2="168.456">
      <title>v_27_v_26</title>
    </line>
  </g>
</svg>